<?xml version="1.0" standalone="no"?>
<!DOCTYPE svg PUBLIC "-//W3C//DTD SVG 20010904//EN"
 "http://www.w3.org/TR/2001/REC-SVG-20010904/DTD/svg10.dtd">
<svg version="1.0" xmlns="http://www.w3.org/2000/svg"
 width="500.000000pt" height="500.000000pt" viewBox="0 0 500.000000 500.000000"
 preserveAspectRatio="xMidYMid meet">
<metadata>
Created by potrace 1.14, written by Peter Selinger 2001-2017
</metadata>
<g transform="translate(0.000000,500.000000) scale(0.100000,-0.100000)"
fill="#000000" stroke="none">
<path d="M521 3926 c-1 -50 -4 -109 -6 -131 -9 -92 -17 -153 -25 -195 -5 -25
-11 -63 -14 -86 -18 -117 -98 -396 -203 -704 -46 -135 -116 -337 -154 -450
-101 -296 -123 -390 -116 -515 4 -77 10 -113 30 -155 42 -93 71 -115 195 -145
102 -24 207 -21 326 10 124 32 140 40 132 68 -33 113 -32 245 3 387 45 187
297 969 312 970 9 0 137 -453 164 -582 42 -200 174 -544 255 -664 16 -25 30
-48 30 -53 0 -4 24 -31 53 -61 74 -76 115 -91 240 -91 56 0 109 2 117 4 8 2
33 7 55 11 51 9 185 56 185 65 0 3 -7 28 -15 55 -14 47 -15 222 -2 282 56 243
83 334 197 664 182 528 238 754 256 1027 12 176 -9 217 -140 279 -107 51 -256
87 -413 98 l-53 4 -1 -86 c0 -48 -2 -103 -4 -122 -12 -125 -17 -164 -31 -242
-20 -119 -55 -257 -114 -450 -46 -155 -158 -489 -164 -496 -4 -3 -8 14 -85
303 -106 402 -196 624 -316 782 -66 86 -142 162 -194 192 -99 59 -281 107
-427 114 l-72 4 -1 -91z"/>
<path d="M2679 3827 c-1 -226 -34 -421 -116 -702 -19 -66 -41 -140 -48 -165
-7 -25 -43 -133 -80 -240 -255 -743 -248 -719 -249 -865 -1 -120 15 -182 61
-243 31 -41 60 -56 156 -77 135 -30 220 -24 378 27 l67 21 -15 41 c-47 134 -6
373 134 786 118 345 111 329 113 285 15 -410 34 -518 110 -614 53 -67 110 -93
213 -97 45 -2 102 1 127 7 42 9 129 45 140 58 3 4 30 25 60 47 84 64 246 231
343 354 24 32 20 16 -39 -160 -35 -107 -74 -233 -86 -280 -55 -224 7 -425 142
-460 22 -5 59 -15 83 -21 45 -12 149 -14 207 -5 50 9 210 58 210 65 0 3 -7 30
-15 60 -9 34 -13 87 -11 140 6 156 53 333 220 831 192 575 216 680 216 937 l0
152 -29 30 c-62 63 -240 129 -398 146 -26 3 -69 8 -94 11 -44 5 -47 4 -53 -23
-13 -51 -91 -206 -171 -338 -217 -359 -486 -717 -684 -909 l-81 -78 -1 178 c0
99 -2 193 -4 209 -1 17 -6 71 -9 120 -17 253 -80 467 -179 601 -110 149 -265
215 -559 239 l-58 4 -1 -72z"/>
</g>
</svg>
